<svg width="54" height="54" viewBox="0 0 54 54" fill="none" xmlns="http://www.w3.org/2000/svg">
<circle cx="27" cy="27" r="27" fill="#E8F0F2"/>
<path d="M33.7656 32.0415C34.7151 31.5315 35.8019 31.2411 36.9593 31.2411H36.9632C37.0809 31.2411 37.1359 31.0999 37.0495 31.0214C35.8459 29.9412 34.4709 29.0688 32.9809 28.4398C32.9652 28.4319 32.9495 28.428 32.9339 28.4202C35.3703 26.6507 36.9554 23.7748 36.9554 20.5301C36.9554 15.155 32.6082 10.8 27.2449 10.8C21.8815 10.8 17.5383 15.155 17.5383 20.5301C17.5383 23.7748 19.1234 26.6507 21.5637 28.4202C21.548 28.428 21.5323 28.4319 21.5166 28.4398C19.7629 29.1813 18.1896 30.2446 16.836 31.6021C15.4902 32.9454 14.4188 34.5379 13.6815 36.2906C12.9562 38.0069 12.5647 39.8459 12.5281 41.7089C12.527 41.7507 12.5343 41.7924 12.5497 41.8314C12.565 41.8704 12.5879 41.9059 12.6172 41.9359C12.6464 41.9659 12.6814 41.9897 12.72 42.006C12.7586 42.0222 12.8 42.0306 12.8419 42.0306H15.1921C15.3608 42.0306 15.502 41.8933 15.5059 41.7246C15.5844 38.6957 16.7968 35.859 18.9429 33.709C21.1596 31.4844 24.11 30.2603 27.2488 30.2603C29.4734 30.2603 31.6077 30.8762 33.4478 32.0297C33.4951 32.0594 33.5494 32.0762 33.6051 32.0782C33.6609 32.0803 33.7163 32.0676 33.7656 32.0415ZM27.2488 27.2785C25.4519 27.2785 23.7609 26.5762 22.4857 25.301C21.8584 24.6753 21.361 23.9316 21.0223 23.1128C20.6836 22.294 20.5102 21.4162 20.5122 20.5301C20.5122 18.7293 21.2145 17.0344 22.4857 15.7592C23.7569 14.4841 25.4479 13.7818 27.2488 13.7818C29.0496 13.7818 30.7367 14.4841 32.0118 15.7592C32.6392 16.385 33.1366 17.1287 33.4753 17.9475C33.814 18.7663 33.9873 19.644 33.9853 20.5301C33.9853 22.331 33.283 24.0259 32.0118 25.301C30.7367 26.5762 29.0457 27.2785 27.2488 27.2785ZM41.6792 36.6162H38.3835V33.3206C38.3835 33.1479 38.2423 33.0067 38.0696 33.0067H35.8725C35.6999 33.0067 35.5586 33.1479 35.5586 33.3206V36.6162H32.2629C32.0903 36.6162 31.9491 36.7575 31.9491 36.9301V39.1272C31.9491 39.2999 32.0903 39.4411 32.2629 39.4411H35.5586V42.7368C35.5586 42.9094 35.6999 43.0507 35.8725 43.0507H38.0696C38.2423 43.0507 38.3835 42.9094 38.3835 42.7368V39.4411H41.6792C41.8518 39.4411 41.9931 39.2999 41.9931 39.1272V36.9301C41.9931 36.7575 41.8518 36.6162 41.6792 36.6162Z" fill="#39A2DB"/>
</svg>
