<svg width="42" height="42" viewBox="0 0 42 42" fill="none" xmlns="http://www.w3.org/2000/svg">
<path d="M35.3207 11.0857V17.6732C35.3207 17.6732 30.9363 17.6952 30.9143 17.6732V11.0857H24.3048C24.3048 11.0857 24.3268 6.70134 24.3048 6.67931H30.9143V0.0697632H35.3207V6.67931H41.9302V11.0857H35.3207ZM28.7111 19.8984V13.2889H22.1016V6.67931H4.47613C2.05263 6.67931 0.0697632 8.66218 0.0697632 11.0857V37.5239C0.0697632 39.9474 2.05263 41.9302 4.47613 41.9302H30.9143C33.3378 41.9302 35.3207 39.9474 35.3207 37.5239V19.8984H28.7111ZM4.47613 37.5239L11.0857 28.7111L15.492 35.3207L22.1016 26.508L30.9143 37.5239H4.47613Z" fill="#39A2DB"/>
</svg>
