<svg width="174" height="174" viewBox="0 0 174 174" fill="none" xmlns="http://www.w3.org/2000/svg">
<path d="M49.8444 46.4652L59.1374 34.6377L67.5856 32.1032L78.5683 40.5514L82.7924 50.6893L74.3442 61.6719V70.9649L84.482 80.258L96.3095 92.0855L108.137 102.223L115.74 94.6199L121.654 90.3958L134.326 97.1544L141.085 105.603V112.361L134.326 122.499L119.12 125.033L106.447 122.499L94.6199 118.275L78.5683 108.137L65.0512 94.6199L54.0685 78.5683L49.8444 61.6719V46.4652Z" fill="#39A2DB"/>
<path fill-rule="evenodd" clip-rule="evenodd" d="M128.476 88.4788C127.124 87.9246 125.676 87.6394 124.214 87.6393C122.848 87.5615 121.483 87.8099 120.232 88.364C119.15 88.8862 118.117 89.5058 117.147 90.2152C116.203 90.9005 115.338 91.6899 114.571 92.5686C113.825 93.4297 113.1 94.2189 112.39 94.9293C111.745 95.5815 111.049 96.1813 110.309 96.7231C109.562 97.2584 108.647 97.5073 107.731 97.4243C106.816 97.3413 105.961 96.932 105.322 96.271C104.532 95.5303 103.748 94.7841 102.969 94.0324C101.964 93.0565 100.73 91.8798 99.2734 90.495C97.7491 89.0492 96.2351 87.5926 94.7315 86.1253L89.8524 81.361C86.8567 78.432 83.961 75.4024 81.1705 72.2772C80.1682 71.1754 79.2315 70.0159 78.365 68.8044C77.6905 67.8358 77.3533 67.1254 77.3533 66.6734C77.3116 65.8635 77.5696 65.0666 78.078 64.4348C78.6017 63.7603 79.226 63.0715 79.9291 62.354C80.6467 61.6508 81.4288 60.8974 82.2826 60.1153C83.1436 59.326 83.9329 58.4865 84.6432 57.5896C85.3464 56.6927 85.9491 55.6667 86.437 54.5043C86.9178 53.3563 87.1617 52.0432 87.1617 50.5867C87.1617 47.6258 85.9937 44.7845 83.9114 42.6796C82.5708 41.3637 81.2991 39.9794 80.1014 38.5324C78.7324 36.9022 77.2532 35.3679 75.6743 33.9402C74.1415 32.5375 72.468 31.2968 70.6803 30.2378C69.0568 29.2551 67.1968 28.7318 65.299 28.7239C62.3406 28.7259 59.5022 29.8937 57.3991 31.9742C55.4546 33.9187 53.7541 35.6551 52.2975 37.1906C50.8997 38.6444 49.6587 40.2413 48.5951 41.9549C47.5644 43.6552 46.8089 45.5077 46.3565 47.4439C45.8298 49.8372 45.5842 52.2837 45.6246 54.7339C45.6246 58.6946 46.2632 62.806 47.5332 67.068C48.8032 71.3229 50.5181 75.5706 52.685 79.7896C54.8519 84.0158 57.4924 88.1631 60.592 92.2386C63.6917 96.3069 67.0569 100.174 70.6803 103.841C74.3038 107.5 78.1569 110.887 82.2324 113.987C86.3007 117.086 90.4695 119.763 94.7315 122.001C98.9864 124.247 103.27 125.998 107.568 127.268C111.64 128.505 115.869 129.148 120.125 129.176C122.557 129.175 124.982 128.91 127.357 128.387C129.315 127.945 131.188 127.189 132.903 126.148C134.554 125.144 136.132 123.91 137.668 122.453C139.203 120.99 140.918 119.311 142.827 117.402C144.908 115.297 146.076 112.456 146.077 109.495C145.996 108.236 145.75 106.994 145.345 105.8C144.926 104.549 144.303 103.375 143.501 102.327C142.664 101.228 141.783 100.163 140.861 99.1339C139.911 98.0696 138.902 97.0587 137.84 96.106C136.814 95.1867 135.786 94.2707 134.755 93.3579C133.852 92.562 132.974 91.7389 132.121 90.8896C131.082 89.8477 129.842 89.0275 128.476 88.4788ZM125.843 121.384C123.971 121.834 122.049 122.041 120.125 122.001C116.436 121.931 112.774 121.347 109.247 120.265C105.3 119.072 101.487 117.475 97.8671 115.501C89.82 111.094 82.4555 105.542 76.0043 99.0191C72.7252 95.7029 69.6373 92.2029 66.7555 88.5362C63.9577 84.9911 61.4843 81.2017 59.3651 77.2137C57.3899 73.5263 55.7729 69.6579 54.5362 65.6617C53.4125 62.0702 52.8274 58.332 52.7998 54.5689C52.798 52.6593 53.0244 50.7563 53.4743 48.9005C53.8832 47.3363 54.5003 45.93 55.3255 44.703C56.1434 43.4689 57.1551 42.2706 58.3462 41.1154C59.5445 39.953 60.9077 38.6041 62.4361 37.0758C62.8081 36.6932 63.2549 36.3913 63.7487 36.1889C64.2425 35.9864 64.7726 35.8878 65.3061 35.8991C65.751 35.8632 66.4398 36.1574 67.3726 36.796C68.3054 37.4346 69.3171 38.1951 70.4005 39.092C72.7403 41.0438 74.8993 43.2027 76.851 45.5425C77.7479 46.6188 78.4941 47.6161 79.0897 48.513C79.6852 49.4099 79.9866 50.0987 79.9866 50.5867C80.051 51.3994 79.7904 52.2045 79.2619 52.8253C78.7381 53.428 78.1138 54.1168 77.4107 54.9061C76.6931 55.6882 75.911 56.4344 75.0572 57.1448C74.1962 57.8551 73.4069 58.6946 72.6966 59.6633C71.9836 60.6408 71.3819 61.6949 70.9028 62.806C70.3972 64.0339 70.1505 65.3529 70.1781 66.6806C70.214 68.2089 70.5153 69.6439 71.075 70.9857C71.6346 72.3346 72.4383 73.5329 73.4858 74.5733L100.221 101.315C101.249 102.368 102.48 103.203 103.838 103.77C105.197 104.338 106.655 104.625 108.128 104.616C109.474 104.687 110.818 104.441 112.052 103.898C114.208 102.9 116.135 101.469 117.714 99.6936C118.503 98.8326 119.22 98.0433 119.902 97.333C120.569 96.6298 121.265 96.0271 121.976 95.5392C122.63 95.0735 123.411 94.8205 124.214 94.8145C124.738 94.8145 125.448 95.1158 126.345 95.7114C127.242 96.3069 128.232 97.0746 129.316 98.0074C130.399 98.9402 131.519 99.9734 132.681 101.093C133.836 102.212 134.869 103.331 135.766 104.458C136.656 105.577 137.41 106.589 138.005 107.486C138.601 108.383 138.902 109.064 138.902 109.559C138.907 110.082 138.806 110.599 138.603 111.08C138.401 111.562 138.102 111.996 137.725 112.358C136.118 113.929 134.755 115.3 133.635 116.448C132.548 117.578 131.345 118.593 130.048 119.476C128.763 120.343 127.342 120.988 125.843 121.384Z" fill="#39A2DB"/>
<path d="M96.9626 41.6756L97.0497 41.6974L97.4471 41.8008C99.8835 42.4764 102.27 43.3204 104.589 44.3267C109.124 46.3028 114.786 49.4602 119.576 54.2507C124.367 59.0413 127.524 64.7028 129.506 69.2429C130.51 71.5605 131.352 73.9452 132.026 76.3797C132.075 76.5593 132.113 76.6845 132.124 76.7716L132.146 76.8587L132.151 76.8642C132.39 77.8437 133.003 78.6906 133.859 79.2229C134.715 79.7551 135.746 79.9303 136.73 79.7107C137.714 79.4911 138.572 78.8943 139.121 78.0485C139.669 77.2027 139.864 76.1754 139.664 75.1875L139.658 75.1821L139.658 75.1603L139.647 75.1167L139.609 74.9589C139.404 74.1453 139.177 73.3376 138.929 72.5364C138.256 70.3737 137.465 68.2493 136.561 66.1726C134.356 61.0827 130.709 54.4957 125.02 48.807C119.326 43.1128 112.744 39.4709 107.654 37.2662C104.975 36.1012 102.217 35.1262 99.4015 34.3483C99.224 34.3031 99.0462 34.2595 98.868 34.2177L98.7155 34.1741L98.6665 34.1687L98.6502 34.1632C97.654 33.9394 96.6097 34.1206 95.747 34.6667C94.8844 35.2129 94.274 36.0794 94.0502 37.0756C93.8264 38.0718 94.0076 39.1161 94.5537 39.9788C95.0999 40.8415 95.9664 41.4518 96.9626 41.6756V41.6756Z" fill="#39A2DB"/>
<path d="M41.6754 96.9734L41.6754 96.9625C41.4369 95.983 40.8237 95.1361 39.9676 94.6038C39.1114 94.0716 38.0806 93.8964 37.0967 94.116C36.1128 94.3356 35.2543 94.9324 34.7057 95.7782C34.1572 96.624 33.9623 97.6513 34.1629 98.6392L34.1684 98.6446L34.1684 98.6664L34.1793 98.71L34.2174 98.8678C34.2392 98.9985 34.2936 99.1727 34.348 99.4013C34.4732 99.8532 34.6474 100.496 34.8924 101.296C35.3878 102.88 36.1554 105.096 37.2659 107.654C39.4761 112.739 43.118 119.331 48.8067 125.02C54.5009 130.714 61.0824 134.356 66.1723 136.561C68.8514 137.726 71.6091 138.701 74.4251 139.478L74.9586 139.609L75.111 139.653L75.16 139.658L75.1763 139.663L75.1818 139.669C76.1787 139.892 77.2234 139.71 78.0861 139.163C78.9488 138.615 79.5587 137.748 79.7818 136.751C80.0048 135.754 79.8227 134.709 79.2755 133.847C78.7283 132.984 77.8608 132.374 76.8639 132.151L76.7714 132.135L76.3794 132.026C73.943 131.35 71.5565 130.506 69.2372 129.5C64.7025 127.524 59.041 124.366 54.2505 119.576C49.46 114.785 46.3026 109.124 44.321 104.584C43.317 102.266 42.4748 99.8813 41.8006 97.447C41.7667 97.3167 41.7341 97.186 41.7026 97.0551L41.6754 96.9734Z" fill="#39A2DB"/>
<path d="M101.597 21.2721L101.724 21.3038L102.301 21.454C105.841 22.4355 109.308 23.6618 112.678 25.1239C119.266 27.9949 127.492 32.5822 134.452 39.5422C141.412 46.5022 145.999 54.7277 148.878 61.324C150.338 64.6912 151.561 68.1558 152.54 71.6928C152.611 71.9538 152.667 72.1357 152.682 72.2623L152.714 72.3888L152.722 72.3968C153.068 73.8199 153.959 75.0503 155.203 75.8236C156.447 76.5969 157.945 76.8514 159.374 76.5323C160.804 76.2133 162.051 75.3462 162.848 74.1174C163.645 72.8885 163.928 71.3961 163.637 69.9607L163.629 69.9528L163.629 69.9212L163.613 69.8579L163.558 69.6286C163.26 68.4466 162.93 67.273 162.569 66.109C161.591 62.9668 160.442 59.8803 159.128 56.8632C155.925 49.4682 150.626 39.8981 142.361 31.6331C134.088 23.3601 124.526 18.0689 117.131 14.8657C113.239 13.1732 109.232 11.7566 105.141 10.6264C104.883 10.5607 104.625 10.4974 104.366 10.4366L104.144 10.3733L104.073 10.3654L104.049 10.3575C102.602 10.0324 101.085 10.2955 99.8313 11.0891C98.5779 11.8826 97.6911 13.1415 97.366 14.5889C97.0409 16.0363 97.304 17.5535 98.0975 18.8069C98.8911 20.0602 100.15 20.947 101.597 21.2721V21.2721Z" fill="#39A2DB"/>
<path d="M21.2718 101.613L21.2718 101.597C20.9254 100.174 20.0345 98.9436 18.7906 98.1703C17.5467 97.397 16.0491 97.1425 14.6196 97.4616C13.1901 97.7806 11.9428 98.6477 11.1458 99.8765C10.3488 101.105 10.0656 102.598 10.3572 104.033L10.3651 104.041L10.3651 104.073L10.3809 104.136L10.4363 104.365C10.4679 104.555 10.547 104.808 10.6261 105.14C10.808 105.797 11.0611 106.73 11.417 107.893C12.1367 110.194 13.2519 113.413 14.8654 117.131C18.0765 124.518 23.3677 134.096 31.6327 142.361C39.9057 150.634 49.4678 155.925 56.8629 159.128C60.7553 160.821 64.7619 162.237 68.8531 163.367L69.6282 163.557L69.8497 163.621L69.9209 163.628L69.9446 163.636L69.9525 163.644C71.4009 163.968 72.9187 163.704 74.1721 162.909C75.4254 162.114 76.3116 160.853 76.6357 159.405C76.9598 157.957 76.6952 156.439 75.9002 155.185C75.1052 153.932 73.8448 153.046 72.3964 152.722L72.262 152.698L71.6925 152.54C68.1527 151.559 64.6854 150.332 61.3157 148.87C54.7274 145.999 46.5019 141.412 39.5419 134.452C32.5818 127.492 27.9945 119.266 25.1156 112.67C23.6569 109.302 22.4333 105.838 21.4537 102.301C21.4045 102.112 21.3571 101.922 21.3113 101.732L21.2718 101.613Z" fill="#39A2DB"/>
<path fill-rule="evenodd" clip-rule="evenodd" d="M128.476 88.4788C127.124 87.9246 125.676 87.6394 124.214 87.6393C122.848 87.5615 121.483 87.8099 120.232 88.364C119.15 88.8862 118.117 89.5058 117.147 90.2152C116.203 90.9005 115.338 91.6899 114.571 92.5686C113.825 93.4297 113.1 94.2189 112.39 94.9293C111.745 95.5815 111.049 96.1813 110.309 96.7231C109.562 97.2584 108.647 97.5073 107.731 97.4243C106.816 97.3413 105.961 96.932 105.322 96.271C104.532 95.5303 103.748 94.7841 102.969 94.0324C101.964 93.0565 100.73 91.8798 99.2734 90.495C97.7491 89.0492 96.2351 87.5926 94.7315 86.1253L89.8524 81.361C86.8567 78.432 83.961 75.4024 81.1705 72.2772C80.1682 71.1754 79.2315 70.0159 78.365 68.8044C77.6905 67.8358 77.3533 67.1254 77.3533 66.6734C77.3116 65.8635 77.5696 65.0666 78.078 64.4348C78.6017 63.7603 79.226 63.0715 79.9291 62.354C80.6467 61.6508 81.4288 60.8974 82.2826 60.1153C83.1436 59.326 83.9329 58.4865 84.6432 57.5896C85.3464 56.6927 85.9491 55.6667 86.437 54.5043C86.9178 53.3563 87.1617 52.0432 87.1617 50.5867C87.1617 47.6258 85.9937 44.7845 83.9114 42.6796C82.5708 41.3637 81.2991 39.9794 80.1014 38.5324C78.7324 36.9022 77.2532 35.3679 75.6743 33.9402C74.1415 32.5375 72.468 31.2968 70.6803 30.2378C69.0568 29.2551 67.1968 28.7318 65.299 28.7239C62.3406 28.7259 59.5022 29.8937 57.3991 31.9742C55.4546 33.9187 53.7541 35.6551 52.2975 37.1906C50.8997 38.6444 49.6587 40.2413 48.5951 41.9549C47.5644 43.6552 46.8089 45.5077 46.3565 47.4439C45.8298 49.8372 45.5842 52.2837 45.6246 54.7339C45.6246 58.6946 46.2632 62.806 47.5332 67.068C48.8032 71.3229 50.5181 75.5706 52.685 79.7896C54.8519 84.0158 57.4924 88.1631 60.592 92.2386C63.6917 96.3069 67.0569 100.174 70.6803 103.841C74.3038 107.5 78.1569 110.887 82.2324 113.987C86.3007 117.086 90.4695 119.763 94.7315 122.001C98.9864 124.247 103.27 125.998 107.568 127.268C111.64 128.505 115.869 129.148 120.125 129.176C122.557 129.175 124.982 128.91 127.357 128.387C129.315 127.945 131.188 127.189 132.903 126.148C134.554 125.144 136.132 123.91 137.668 122.453C139.203 120.99 140.918 119.311 142.827 117.402C144.908 115.297 146.076 112.456 146.077 109.495C145.996 108.236 145.75 106.994 145.345 105.8C144.926 104.549 144.303 103.375 143.501 102.327C142.664 101.228 141.783 100.163 140.861 99.1339C139.911 98.0696 138.902 97.0587 137.84 96.106C136.814 95.1867 135.786 94.2707 134.755 93.3579C133.852 92.562 132.974 91.7389 132.121 90.8896C131.082 89.8477 129.842 89.0275 128.476 88.4788ZM125.843 121.384C123.971 121.834 122.049 122.041 120.125 122.001C116.436 121.931 112.774 121.347 109.247 120.265C105.3 119.072 101.487 117.475 97.8671 115.501C89.82 111.094 82.4555 105.542 76.0043 99.0191C72.7252 95.7029 69.6373 92.2029 66.7555 88.5362C63.9577 84.9911 61.4843 81.2017 59.3651 77.2137C57.3899 73.5263 55.7729 69.6579 54.5362 65.6617C53.4125 62.0702 52.8274 58.332 52.7998 54.5689C52.798 52.6593 53.0244 50.7563 53.4743 48.9005C53.8832 47.3363 54.5003 45.93 55.3255 44.703C56.1434 43.4689 57.1551 42.2706 58.3462 41.1154C59.5445 39.953 60.9077 38.6041 62.4361 37.0758C62.8081 36.6932 63.2549 36.3913 63.7487 36.1889C64.2425 35.9864 64.7726 35.8878 65.3061 35.8991C65.751 35.8632 66.4398 36.1574 67.3726 36.796C68.3054 37.4346 69.3171 38.1951 70.4005 39.092C72.7403 41.0438 74.8993 43.2027 76.851 45.5425C77.7479 46.6188 78.4941 47.6161 79.0897 48.513C79.6852 49.4099 79.9866 50.0987 79.9866 50.5867C80.051 51.3994 79.7904 52.2045 79.2619 52.8253C78.7381 53.428 78.1138 54.1168 77.4107 54.9061C76.6931 55.6882 75.911 56.4344 75.0572 57.1448C74.1962 57.8551 73.4069 58.6946 72.6966 59.6633C71.9836 60.6408 71.3819 61.6949 70.9028 62.806C70.3972 64.0339 70.1505 65.3529 70.1781 66.6806C70.214 68.2089 70.5153 69.6439 71.075 70.9857C71.6346 72.3346 72.4383 73.5329 73.4858 74.5733L100.221 101.315C101.249 102.368 102.48 103.203 103.838 103.77C105.197 104.338 106.655 104.625 108.128 104.616C109.474 104.687 110.818 104.441 112.052 103.898C114.208 102.9 116.135 101.469 117.714 99.6936C118.503 98.8326 119.22 98.0433 119.902 97.333C120.569 96.6298 121.265 96.0271 121.976 95.5392C122.63 95.0735 123.411 94.8205 124.214 94.8145C124.738 94.8145 125.448 95.1158 126.345 95.7114C127.242 96.3069 128.232 97.0746 129.316 98.0074C130.399 98.9402 131.519 99.9734 132.681 101.093C133.836 102.212 134.869 103.331 135.766 104.458C136.656 105.577 137.41 106.589 138.005 107.486C138.601 108.383 138.902 109.064 138.902 109.559C138.907 110.082 138.806 110.599 138.603 111.08C138.401 111.562 138.102 111.996 137.725 112.358C136.118 113.929 134.755 115.3 133.635 116.448C132.548 117.578 131.345 118.593 130.048 119.476C128.763 120.343 127.342 120.988 125.843 121.384Z" fill="#39A2DB"/>
<path d="M96.9626 41.6756L97.0497 41.6974L97.4471 41.8008C99.8835 42.4764 102.27 43.3204 104.589 44.3267C109.124 46.3028 114.786 49.4602 119.576 54.2507C124.367 59.0413 127.524 64.7028 129.506 69.2429C130.51 71.5605 131.352 73.9452 132.026 76.3797C132.075 76.5593 132.113 76.6845 132.124 76.7716L132.146 76.8587L132.151 76.8642C132.39 77.8437 133.003 78.6906 133.859 79.2229C134.715 79.7551 135.746 79.9303 136.73 79.7107C137.714 79.4911 138.572 78.8943 139.121 78.0485C139.669 77.2027 139.864 76.1754 139.664 75.1875L139.658 75.1821L139.658 75.1603L139.647 75.1167L139.609 74.9589C139.404 74.1453 139.177 73.3376 138.929 72.5364C138.256 70.3737 137.465 68.2493 136.561 66.1726C134.356 61.0827 130.709 54.4957 125.02 48.807C119.326 43.1128 112.744 39.4709 107.654 37.2662C104.975 36.1012 102.217 35.1262 99.4015 34.3483C99.224 34.3031 99.0462 34.2595 98.868 34.2177L98.7155 34.1741L98.6665 34.1687L98.6502 34.1632C97.654 33.9394 96.6097 34.1206 95.747 34.6667C94.8844 35.2129 94.274 36.0794 94.0502 37.0756C93.8264 38.0718 94.0076 39.1161 94.5537 39.9788C95.0999 40.8415 95.9664 41.4518 96.9626 41.6756V41.6756Z" fill="#39A2DB"/>
<path d="M41.6754 96.9734L41.6754 96.9625C41.4369 95.983 40.8237 95.1361 39.9676 94.6038C39.1114 94.0716 38.0806 93.8964 37.0967 94.116C36.1128 94.3356 35.2543 94.9324 34.7057 95.7782C34.1572 96.624 33.9623 97.6513 34.1629 98.6392L34.1684 98.6446L34.1684 98.6664L34.1793 98.71L34.2174 98.8678C34.2392 98.9985 34.2936 99.1727 34.348 99.4013C34.4732 99.8532 34.6474 100.496 34.8924 101.296C35.3878 102.88 36.1554 105.096 37.2659 107.654C39.4761 112.739 43.118 119.331 48.8067 125.02C54.5009 130.714 61.0824 134.356 66.1723 136.561C68.8514 137.726 71.6091 138.701 74.4251 139.478L74.9586 139.609L75.111 139.653L75.16 139.658L75.1763 139.663L75.1818 139.669C76.1787 139.892 77.2234 139.71 78.0861 139.163C78.9488 138.615 79.5587 137.748 79.7818 136.751C80.0048 135.754 79.8227 134.709 79.2755 133.847C78.7283 132.984 77.8608 132.374 76.8639 132.151L76.7714 132.135L76.3794 132.026C73.943 131.35 71.5565 130.506 69.2372 129.5C64.7025 127.524 59.041 124.366 54.2505 119.576C49.46 114.785 46.3026 109.124 44.321 104.584C43.317 102.266 42.4748 99.8813 41.8006 97.447C41.7667 97.3167 41.7341 97.186 41.7026 97.0551L41.6754 96.9734Z" fill="#39A2DB"/>
<path d="M101.597 21.2721L101.724 21.3038L102.301 21.454C105.841 22.4355 109.308 23.6618 112.678 25.1239C119.266 27.9949 127.492 32.5822 134.452 39.5422C141.412 46.5022 145.999 54.7277 148.878 61.324C150.338 64.6912 151.561 68.1558 152.54 71.6928C152.611 71.9538 152.667 72.1357 152.682 72.2623L152.714 72.3888L152.722 72.3968C153.068 73.8199 153.959 75.0503 155.203 75.8236C156.447 76.5969 157.945 76.8514 159.374 76.5323C160.804 76.2133 162.051 75.3462 162.848 74.1174C163.645 72.8885 163.928 71.3961 163.637 69.9607L163.629 69.9528L163.629 69.9212L163.613 69.8579L163.558 69.6286C163.26 68.4466 162.93 67.273 162.569 66.109C161.591 62.9668 160.442 59.8803 159.128 56.8632C155.925 49.4682 150.626 39.8981 142.361 31.6331C134.088 23.3601 124.526 18.0689 117.131 14.8657C113.239 13.1732 109.232 11.7566 105.141 10.6264C104.883 10.5607 104.625 10.4974 104.366 10.4366L104.144 10.3733L104.073 10.3654L104.049 10.3575C102.602 10.0324 101.085 10.2955 99.8313 11.0891C98.5779 11.8826 97.6911 13.1415 97.366 14.5889C97.0409 16.0363 97.304 17.5535 98.0975 18.8069C98.8911 20.0602 100.15 20.947 101.597 21.2721V21.2721Z" fill="#39A2DB"/>
<path d="M21.2718 101.613L21.2718 101.597C20.9254 100.174 20.0345 98.9436 18.7906 98.1703C17.5467 97.397 16.0491 97.1425 14.6196 97.4616C13.1901 97.7806 11.9428 98.6477 11.1458 99.8765C10.3488 101.105 10.0656 102.598 10.3572 104.033L10.3651 104.041L10.3651 104.073L10.3809 104.136L10.4363 104.365C10.4679 104.555 10.547 104.808 10.6261 105.14C10.808 105.797 11.0611 106.73 11.417 107.893C12.1367 110.194 13.2519 113.413 14.8654 117.131C18.0765 124.518 23.3677 134.096 31.6327 142.361C39.9057 150.634 49.4678 155.925 56.8629 159.128C60.7553 160.821 64.7619 162.237 68.8531 163.367L69.6282 163.557L69.8497 163.621L69.9209 163.628L69.9446 163.636L69.9525 163.644C71.4009 163.968 72.9187 163.704 74.1721 162.909C75.4254 162.114 76.3116 160.853 76.6357 159.405C76.9598 157.957 76.6952 156.439 75.9002 155.185C75.1052 153.932 73.8448 153.046 72.3964 152.722L72.262 152.698L71.6925 152.54C68.1527 151.559 64.6854 150.332 61.3157 148.87C54.7274 145.999 46.5019 141.412 39.5419 134.452C32.5818 127.492 27.9945 119.266 25.1156 112.67C23.6569 109.302 22.4333 105.838 21.4537 102.301C21.4045 102.112 21.3571 101.922 21.3113 101.732L21.2718 101.613Z" fill="#39A2DB"/>
</svg>
